<svg width="51" height="30" viewBox="0 0 51 30" fill="none" xmlns="http://www.w3.org/2000/svg">
<rect x="0.428589" width="50.5714" height="30" rx="3" fill="white"/>
<g clip-path="url(#clip0_2536_15)">
<path d="M29.3272 21.9305H21.767V8.66211H29.3272V21.9305Z" fill="#FF5F00"/>
<path d="M22.2511 15.2973C22.2511 12.6058 23.5416 10.2082 25.5512 8.6631C24.0816 7.53325 22.227 6.85889 20.2113 6.85889C15.4395 6.85889 11.5714 10.6368 11.5714 15.2973C11.5714 19.9578 15.4395 23.7358 20.2113 23.7358C22.227 23.7358 24.0816 23.0614 25.5512 21.9316C23.5416 20.3865 22.2511 17.9889 22.2511 15.2973Z" fill="#EB001B"/>
<path d="M39.5238 15.2968C39.5238 19.9573 35.6557 23.7353 30.8839 23.7353C28.8682 23.7353 27.0135 23.0609 25.5435 21.9311C27.5536 20.386 28.8441 17.9884 28.8441 15.2968C28.8441 12.6053 27.5536 10.2077 25.5435 8.66261C27.0135 7.53276 28.8682 6.8584 30.8839 6.8584C35.6557 6.8584 39.5238 10.6364 39.5238 15.2968Z" fill="#F79E1B"/>
</g>
<defs>
<clipPath id="clip0_2536_15">
<rect width="28.2857" height="17.1429" fill="white" transform="translate(11.5714 6.85742)"/>
</clipPath>
</defs>
</svg>
