<svg width="52" height="30" viewBox="0 0 52 30" fill="none" xmlns="http://www.w3.org/2000/svg">
<rect x="0.857178" width="50.5714" height="30" rx="3" fill="white"/>
<g clip-path="url(#clip0_2536_16)">
<path fill-rule="evenodd" clip-rule="evenodd" d="M33.7782 15.0156V19.7147H36.5861V16.9301H39.7683C41.1076 16.9208 42.2454 16.1254 42.6744 15.0156H33.7782Z" fill="#37A72E"/>
<path fill-rule="evenodd" clip-rule="evenodd" d="M33.4039 11.1426C33.5675 13.0633 35.5219 14.5798 37.9089 14.5798C37.9167 14.5798 42.7912 14.5798 42.7912 14.5798C42.8272 14.4037 42.8461 14.2219 42.8461 14.036C42.8461 12.4449 41.4654 11.1543 39.7575 11.1427L33.4039 11.1426Z" fill="url(#paint0_linear_2536_16)"/>
<path fill-rule="evenodd" clip-rule="evenodd" d="M29.248 14.5341L29.2503 14.5298L29.2505 14.5298C29.2793 14.4818 29.3345 14.4493 29.3978 14.4493C29.4893 14.4493 29.5637 14.5171 29.5662 14.6016L29.5663 14.6016V19.6705H32.3742V11.1426H29.5663C29.2102 11.1536 28.8079 11.3965 28.6583 11.6947L26.4239 16.15C26.4183 16.1682 26.4097 16.1852 26.3985 16.2005L26.3977 16.202L26.3975 16.2019C26.3637 16.2471 26.3074 16.2767 26.2436 16.2767C26.1403 16.2767 26.0564 16.1988 26.0564 16.1027V11.1426H23.2485V19.6705H26.0564V19.6695C26.4086 19.6524 26.8015 19.4122 26.9489 19.1184L29.2423 14.5456C29.2441 14.5417 29.2459 14.5379 29.248 14.5341Z" fill="#37A72E"/>
<path fill-rule="evenodd" clip-rule="evenodd" d="M18.7633 14.6799L17.1222 19.6705H15.1022L13.4602 14.6769C13.4443 14.5969 13.369 14.5363 13.2784 14.5363C13.1763 14.5363 13.0935 14.6133 13.0935 14.7082C13.0935 14.7089 13.0935 14.7097 13.0935 14.7104L13.0935 19.6705H10.2856V11.1426H12.6957H13.4135C13.9302 11.1426 14.4716 11.5154 14.6226 11.9745L15.9891 16.1301C16.0571 16.3369 16.1674 16.3367 16.2353 16.1301L17.6018 11.9745C17.7529 11.515 18.2942 11.1426 18.8109 11.1426H19.5285H21.9384V19.6705H19.1305V14.7104C19.1305 14.7097 19.1305 14.7089 19.1305 14.7082C19.1305 14.6133 19.0477 14.5363 18.9456 14.5363C18.8539 14.5363 18.7778 14.5985 18.7633 14.6799Z" fill="#37A72E"/>
</g>
<defs>
<linearGradient id="paint0_linear_2536_16" x1="33.4039" y1="12.8612" x2="42.8461" y2="12.8612" gradientUnits="userSpaceOnUse">
<stop stop-color="#00A0E5"/>
<stop offset="1" stop-color="#0077C3"/>
</linearGradient>
<clipPath id="clip0_2536_16">
<rect width="32.5714" height="8.57143" fill="white" transform="translate(10.2856 11.1426)"/>
</clipPath>
</defs>
</svg>
