<svg xmlns="http://www.w3.org/2000/svg" xmlns:xlink="http://www.w3.org/1999/xlink" width="0" height="0" style="position:absolute">
    <symbol id="menu"  viewBox="0 0 20 18">
        <rect width="20" height="1.8"/>
        <rect y="8" width="20" height="1.8"/>
        <rect y="16" width="20" height="1.8"/>
    </symbol>
    <symbol id="pen-edit"  viewBox="0 0 22 22">
        <path d="M1.2,12.2l1.9-1.9c0.2-0.2,0.4-0.3,0.7-0.2V1L21,1v0.5V18v0.8h-9.6V21h0l-2.8-0.2c-0.1,0-0.3-0.1-0.4-0.2l-1.7-1.8H3.8V18
	v-2.1c-1.6-1.6-2.4-2.5-2.5-2.7C0.9,13,0.9,12.5,1.2,12.2z M19.6,17.2V2.5H5.2v8.9c0.2,0.2,5.4,5.6,5.6,5.8H19.6z M9.1,19.3l1.1,0.2
	l-0.2-1.1l-4.5-4.7l-0.8,0.9L9.1,19.3z M3.6,13.6l0.8-0.9L4,12.3l0,0l-0.4-0.4l-0.8,0.9L3.6,13.6z"/>
        <path d="M9,5.5h8V7H9V5.5z"/>
        <path d="M8,8.5h9V10H8V8.5z"/>
        <path d="M9,11.5h8V13H9V11.5z"/>
    </symbol>
    <symbol id="basket"  viewBox="0 0 22 22">
        <path d="M2.5,21L4.4,5.4H8V4.1C8,2.4,9.3,1,11,1c1.7,0,3,1.4,3,3.1v1.3l3.6,0L19.5,21c0,0-0.4,0-0.6,0H3.1C2.9,21,2.5,21,2.5,21z
	 M12.9,4.1C12.9,3,12,2.2,11,2.2c-1,0-1.9,0.9-1.9,1.9v1.3h3.7V4.1z M18.3,19.8L16.6,6.6H14v1.3c0,0.3-0.3,0.6-0.6,0.6
	c-0.3,0-0.6-0.3-0.6-0.6V6.6H9.1v1.3c0,0.3-0.3,0.6-0.6,0.6C8.2,8.4,8,8.2,8,7.9V6.6H5.4L3.7,19.8H18.3z"/>
    </symbol>
    <symbol id="share"  viewBox="0 0 16 16">
        <path d="M12.1,9.6c-0.9,0-1.7,0.4-2.2,1L6.8,8.9C6.9,8.6,6.9,8.3,6.9,8c0-0.3,0-0.6-0.1-0.9l3.1-1.8c0.6,0.6,1.4,1,2.2,1
	c1.7,0,3.1-1.4,3.1-3s-1.4-3-3.1-3s-3.1,1.4-3.1,3c0,0.3,0,0.6,0.1,0.9L6.1,5.9C5.5,5.3,4.7,5,3.9,5C2.2,5,0.8,6.3,0.8,8
	c0,1.7,1.4,3,3.1,3c0.9,0,1.7-0.4,2.2-1l3.1,1.8c-0.1,0.3-0.1,0.6-0.1,0.9c0,1.7,1.4,3,3.1,3s3.1-1.4,3.1-3S13.8,9.6,12.1,9.6z
	 M13.8,12.7c0,0.9-0.7,1.6-1.7,1.6c-0.9,0-1.7-0.7-1.7-1.6s0.7-1.6,1.7-1.6C13.1,11,13.8,11.8,13.8,12.7z M10.5,3.3
	c0-0.9,0.7-1.6,1.7-1.6c0.9,0,1.7,0.7,1.7,1.6c0,0.9-0.7,1.6-1.7,1.6C11.2,5,10.5,4.2,10.5,3.3z M5.5,8c0,0.9-0.7,1.6-1.7,1.6
	S2.2,8.9,2.2,8c0-0.9,0.7-1.6,1.7-1.6S5.5,7.1,5.5,8z"/>
    </symbol>
    <symbol id="phone-circle"  viewBox="0 0 30 30">
        <path d="M22,11c0-1.6-1.4-3-3-3c-1.7,0-3,1.4-3,3c0,1.7,1.4,3.1,3.1,3c-1,2.8-3.2,5-6,6c0-1.7-1.3-3.1-3-3.1c-1.7,0-3,1.4-3,3
	c0,1.7,1.4,3,3,3C16.9,23,22.2,17.1,22,11z"/>
        <path d="M25.6,4.4c-5.9-5.9-15.3-5.9-21.2,0c-5.9,5.9-5.9,15.3,0,21.2c5.9,5.9,15.3,5.9,21.2,0C31.5,19.7,31.5,10.3,25.6,4.4z
	 M15,27.5C8.1,27.5,2.5,21.9,2.5,15C2.5,8.1,8.1,2.5,15,2.5c6.9,0,12.5,5.6,12.5,12.5C27.5,21.9,21.9,27.5,15,27.5z"/>
    </symbol>
    <symbol id="arrow-left"  viewBox="0 0 18 18">
        <path d="M8.1,14.5L6.7,16L0,9l6.7-7l1.4,1.5L3.8,8H18V10H3.8L8.1,14.5z"/>
    </symbol>
    <symbol id="arrow-right"  viewBox="0 0 18 18">
        <path d="M9.9,3.5L11.3,2L18,9l-6.7,7l-1.4-1.5l4.3-4.5H0L0,8h14.2L9.9,3.5z"/>
    </symbol>
    <symbol id="check"  viewBox="0 0 14 14">
        <path d="M12.3,2L5.4,8.7L1.7,5.1L0,6.7L5.4,12L14,3.6L12.3,2z"/>
    </symbol>
    <symbol id="angle-left"  viewBox="0 0 16 16">
        <path d="M11.8,14L6,8l5.7-6c0.3-0.3,0.3-0.9,0-1.2c-0.2-0.2-0.4-0.3-0.6-0.3c-0.3,0-0.4,0.1-0.6,0.3L4.2,7.4c-0.3,0.3-0.3,0.9,0,1.2
	l6.3,6.6c0.2,0.2,0.4,0.3,0.6,0.3c0,0,0,0,0,0c0.2,0,0.5-0.1,0.6-0.3c0.2-0.2,0.2-0.4,0.2-0.6C12,14.4,11.9,14.2,11.8,14z"/>
    </symbol>
    <symbol id="angle-right"  viewBox="0 0 16 16">
        <path d="M4.2,2L10,8l-5.7,6c-0.3,0.3-0.3,0.9,0,1.2c0.2,0.2,0.4,0.3,0.6,0.3c0.3,0,0.4-0.1,0.6-0.3l6.3-6.6c0.3-0.3,0.3-0.9,0-1.2
	L5.5,0.8C5.3,0.6,5.1,0.5,4.8,0.5c0,0,0,0,0,0c-0.2,0-0.5,0.1-0.6,0.3C4.1,0.9,4,1.1,4,1.4C4,1.6,4.1,1.8,4.2,2z"/>
    </symbol>
    <symbol id="angle-up"  viewBox="0 0 16 16">
        <path d="M2,11.8L8,6l6,5.7c0.3,0.3,0.9,0.3,1.2,0c0.2-0.2,0.3-0.4,0.3-0.6c0-0.3-0.1-0.4-0.3-0.6L8.6,4.2c-0.3-0.3-0.9-0.3-1.2,0
	l-6.6,6.3c-0.2,0.2-0.3,0.4-0.3,0.6c0,0,0,0,0,0c0,0.2,0.1,0.5,0.3,0.6C0.9,11.9,1.1,12,1.4,12C1.6,12,1.8,11.9,2,11.8z"/>
    </symbol>
    <symbol id="angle-down"  viewBox="0 0 16 16">
        <path d="M14,4.2L8,10L2,4.2c-0.3-0.3-0.9-0.3-1.2,0C0.6,4.4,0.5,4.6,0.5,4.9c0,0.3,0.1,0.4,0.3,0.6l6.6,6.3c0.3,0.3,0.9,0.3,1.2,0
	l6.6-6.3c0.2-0.2,0.3-0.4,0.3-0.6c0,0,0,0,0,0c0-0.2-0.1-0.5-0.3-0.6C15.1,4.1,14.9,4,14.6,4C14.4,4,14.2,4.1,14,4.2z"/>
    </symbol>
    <symbol id="inst"  viewBox="0 0 19 19">
        <path d="M9.5,2c2.2,0,2.4,0,3.3,0c0.9,0,1.4,0.2,1.9,0.4c0.5,0.2,1,0.5,1.4,0.8c0.4,0.4,0.7,0.8,0.9,1.3c0.2,0.5,0.3,1,0.4,1.8
	c0,0.8,0,1.1,0,3.1s0,2.3,0,3.1c0,0.6-0.1,1.2-0.4,1.8c-0.2,0.5-0.5,1-0.9,1.3c-0.4,0.4-0.9,0.7-1.4,0.9c-0.6,0.2-1.3,0.3-1.9,0.3
	c-0.9,0-1.1,0-3.3,0s-2.4,0-3.3,0c-0.7,0-1.3-0.1-1.9-0.3c-0.5-0.2-1-0.5-1.4-0.9c-0.4-0.4-0.7-0.8-0.9-1.3c-0.2-0.5-0.3-1-0.4-1.8
	c0-1-0.1-2.1,0-3.1c0-2,0-2.3,0-3.1c0-0.8,0.2-1.3,0.4-1.8c0.2-0.5,0.5-1,0.9-1.3c0.4-0.4,0.9-0.7,1.4-0.8C4.9,2.2,5.5,2.1,6.2,2
	C7.3,2,8.4,2,9.5,2L9.5,2z M8.8,3.4c-1.5,0-1.8,0-2.5,0c-0.8,0-1.2,0.2-1.5,0.3C4.4,3.8,4.1,3.9,3.9,4.2C3.6,4.5,3.4,4.7,3.3,5.1
	C3.2,5.3,3,5.7,3,6.5c0,0.8,0,1,0,3c0,2,0,2.2,0,3c0,0.7,0.2,1.1,0.3,1.4c0.1,0.3,0.3,0.6,0.6,0.9s0.5,0.4,0.9,0.6
	c0.3,0.1,0.7,0.2,1.5,0.3c0.8,0,1.1,0,3.2,0s2.4,0,3.2,0c0.8,0,1.2-0.2,1.5-0.3c0.4-0.1,0.6-0.3,0.9-0.6c0.3-0.3,0.5-0.5,0.6-0.9
	c0.1-0.3,0.2-0.7,0.3-1.4c0-0.8,0-1,0-3s0-2.2,0-3c0-0.5-0.1-0.9-0.3-1.4c-0.1-0.3-0.3-0.6-0.6-0.9c-0.3-0.3-0.6-0.4-0.9-0.6
	c-0.5-0.2-1-0.3-1.5-0.3c-1.1,0-2.2-0.1-3.2,0H8.8z M13.8,4.6c0.5,0,1,0.4,1,0.9s-0.4,0.9-1,0.9c-0.5,0-1-0.4-1-0.9
	C12.8,5,13.3,4.6,13.8,4.6z M9.5,5.7c1.1,0,2.1,0.4,2.9,1.1s1.2,1.7,1.2,2.8c0,2.1-1.8,3.9-4.1,3.9c-0.5,0-1.1-0.1-1.5-0.3
	c-0.5-0.2-0.9-0.5-1.3-0.8C6.3,11.9,6,11.5,5.7,11c-0.2-0.5-0.3-1-0.3-1.5C5.4,7.4,7.2,5.7,9.5,5.7z M6.8,9.5C6.8,10.9,8,12,9.5,12
	c0.3,0,0.7,0,1-0.2c0.3-0.1,0.6-0.3,0.9-0.5c0.2-0.2,0.4-0.5,0.6-0.8c0.1-0.3,0.2-0.6,0.2-1C12.2,8.1,11,7,9.5,7c-0.3,0-0.7,0-1,0.2
	C8.2,7.3,7.9,7.5,7.6,7.7C7.4,7.9,7.2,8.2,7.1,8.5C6.9,8.8,6.8,9.2,6.8,9.5z"/>
    </symbol>
    <symbol id="youtube"  viewBox="0 0 19 19">
        <path d="M19,9.5c0,1.2,0,2.5-0.3,3.7c-0.1,0.4-0.4,0.8-0.8,1.1c-0.4,0.3-0.8,0.4-1.3,0.5C14.3,15,11.9,15,9.5,15
	c-2.4,0-4.7,0-7.1-0.2c-0.5,0-0.9-0.2-1.3-0.5c-0.4-0.3-0.6-0.6-0.8-1.1C0,12,0,10.7,0,9.5C0,8.3,0,7,0.3,5.8C0.5,5.4,0.7,5,1.1,4.7
	c0.4-0.3,0.8-0.4,1.3-0.5C4.7,4,7.1,4,9.5,4c2.4,0,4.7,0,7.1,0.2c1,0.1,1.8,0.7,2.1,1.5C19,7,19,8.3,19,9.5L19,9.5z M13.1,9.4L7,6.7
	v5.2L13.1,9.4L13.1,9.4z"/>
    </symbol>
    <symbol id="vk"  viewBox="0 0 19 19">
        <path d="M18.4,13.9l-0.1-0.1c-0.3-0.6-0.9-1.3-1.8-2.2l0,0l0,0h0c-0.4-0.4-0.6-0.7-0.8-0.8c-0.2-0.3-0.2-0.5-0.1-0.8
	c0.1-0.2,0.4-0.6,0.8-1.3l0.6-0.9c1.1-1.5,1.5-2.5,1.4-2.9l-0.1-0.1c0-0.1-0.1-0.1-0.3-0.2c-0.2-0.1-0.4-0.1-0.6,0l-2.7,0
	c-0.1,0-0.1,0-0.2,0l-0.1,0l0,0l0,0c0,0-0.1,0.1-0.1,0.1c0,0.1-0.1,0.1-0.1,0.2c-0.4,1.2-1,2.3-1.6,3.3c-0.2,0.4-0.5,0.7-0.8,1
	c-0.1,0.1-0.2,0.1-0.2,0.1l-0.2,0c-0.1-0.1-0.2-0.1-0.2-0.2C11.1,9,11,8.8,11,8.7c0-0.3-0.1-0.6,0-0.9l0-0.4l0-0.8l0-0.7l0-0.5
	c0-0.2,0-0.3,0-0.5c0-0.1-0.1-0.2-0.1-0.3c0-0.1-0.1-0.2-0.2-0.2c-0.1-0.1-0.2-0.1-0.3-0.1C10.1,4.1,9.7,4,9.2,4
	C8,4,7.3,4.1,6.9,4.2C6.8,4.3,6.7,4.4,6.6,4.5c-0.1,0.1-0.1,0.2,0,0.2C6.9,4.9,7.2,5,7.3,5.2l0.1,0.1c0,0.1,0.1,0.2,0.1,0.5
	C7.7,6.9,7.6,8,7.4,9.1c0,0.1-0.1,0.2-0.1,0.2c0,0,0,0,0,0.1c-0.1,0-0.2,0-0.3,0c-0.1,0-0.2-0.1-0.3-0.1C6.5,9.1,6.4,9,6.3,8.9
	C6.1,8.6,5.9,8.4,5.8,8.2c-0.2-0.3-0.3-0.6-0.5-1L5.1,6.8C4.8,6.2,4.6,5.6,4.3,5c0-0.1-0.1-0.2-0.2-0.3l0,0C3.9,4.6,3.8,4.5,3.7,4.5
	l-2.6,0c-0.3,0-0.4,0.1-0.5,0.2l0,0.1c0,0,0,0.1,0,0.2c0,0.1,0,0.2,0.1,0.3C1.2,6.9,2,8.5,2.9,10c0.6,1,1.2,1.9,1.9,2.7L5.1,13
	c0.1,0.2,0.4,0.4,0.7,0.6c0.3,0.2,0.6,0.4,1,0.7c0.8,0.5,1.7,0.7,2.6,0.7h1.1c0.2,0,0.4-0.1,0.5-0.2l0-0.1c0.1-0.1,0.1-0.3,0.1-0.5
	c0-0.3,0-0.5,0.1-0.8c0-0.2,0.1-0.4,0.2-0.5c0.1-0.2,0.2-0.3,0.4-0.4c0,0,0.1,0,0.1,0c0.1-0.1,0.3,0,0.5,0.2
	c0.2,0.2,0.4,0.3,0.6,0.6c0.2,0.2,0.4,0.5,0.6,0.8c0.3,0.3,0.5,0.5,0.7,0.6l0.2,0.1c0.1,0.1,0.3,0.2,0.5,0.2c0.2,0.1,0.4,0.1,0.5,0
	l2.4,0c0.2,0,0.4,0,0.5-0.1c0.1-0.1,0.2-0.2,0.2-0.3c0-0.1,0-0.2,0-0.3C18.5,14.1,18.4,14,18.4,13.9z"/>
    </symbol>
    <symbol id="fb"  viewBox="0 0 19 19">
        <path d="M7.5,5.5v1.8H6v2.2h1.5V16h3.1V9.5h2.1c0,0,0.2-1,0.3-2.2h-2.4V5.8c0-0.2,0.3-0.5,0.7-0.5H13V3h-2.3C7.4,3,7.5,5.2,7.5,5.5
	L7.5,5.5z"/>
    </symbol>
    <symbol id="search"  viewBox="0 0 19 19">
        <path d="M18.7,17.2l-4.7-4.9c0.9-1.2,1.4-2.7,1.4-4.3c0-4.1-3.4-7.5-7.5-7.5c-4.1,0-7.5,3.4-7.5,7.5c0,4.1,3.4,7.5,7.5,7.5
	c1.8,0,3.5-0.6,4.8-1.7l4.7,4.9L18.7,17.2z M7.8,13.7C4.6,13.7,2,11.1,2,7.9s2.6-5.8,5.8-5.8s5.8,2.6,5.8,5.8S11,13.7,7.8,13.7z"/>
    </symbol>
    <symbol id="menu-small"  viewBox="0 0 12 12">
        <rect x="1" y="0.5" width="10" height="2"/>
        <rect x="1" y="5" width="10" height="2"/>
        <rect x="1" y="9.5" width="10" height="2"/>
    </symbol>
    <symbol id="clock"  viewBox="0 0 15 15">
        <path d="M12.8033 2.19668C11.3867 0.780147 9.50332 0 7.5 0C5.49668 0 3.61327 0.780147 2.19668 2.19668C0.780147 3.61327 0 5.49668 0 7.5C0 9.50332 0.780147 11.3867 2.19668 12.8033C3.61327 14.2199 5.49668 15 7.5 15C9.50332 15 11.3867 14.2199 12.8033 12.8033C14.2199 11.3867 15 9.50332 15 7.5C15 5.49668 14.2199 3.61327 12.8033 2.19668ZM7.5 13.8281C4.01065 13.8281 1.17188 10.9893 1.17188 7.5C1.17188 4.01065 4.01065 1.17188 7.5 1.17188C10.9893 1.17188 13.8281 4.01065 13.8281 7.5C13.8281 10.9893 10.9893 13.8281 7.5 13.8281Z" fill="#333333"/>
        <path d="M8.05263 7V3H7V8H11V7H8.05263Z" fill="#333333" stroke="#333333" stroke-width="0.2"/>
    </symbol>
</svg>
