<svg width="51" height="30" viewBox="0 0 51 30" fill="none" xmlns="http://www.w3.org/2000/svg">
<rect width="50.5714" height="30" rx="3" fill="white"/>
<g clip-path="url(#clip0_2536_5)">
<path d="M21.571 19.5768H19.1409L20.6608 10.4497H23.0909L21.571 19.5768Z" fill="#00579F"/>
<path d="M30.3813 10.6742C29.902 10.4895 29.1417 10.2856 28.2016 10.2856C25.8017 10.2856 24.1117 11.5284 24.1014 13.3052C24.0814 14.6161 25.3113 15.3442 26.2312 15.7813C27.1714 16.228 27.491 16.5195 27.491 16.9177C27.4814 17.5291 26.7313 17.8109 26.0316 17.8109C25.0614 17.8109 24.5415 17.6656 23.7514 17.3255L23.4314 17.1796L23.0913 19.2285C23.6613 19.4806 24.7115 19.7044 25.8017 19.7142C28.3517 19.7142 30.0117 18.4907 30.0314 16.5972C30.0411 15.5582 29.3917 14.7621 27.9915 14.1115C27.1415 13.6939 26.621 13.4123 26.621 12.985C26.631 12.5966 27.0613 12.1987 28.0207 12.1987C28.8108 12.1792 29.3913 12.3637 29.831 12.5482L30.0508 12.6451L30.3813 10.6742Z" fill="#00579F"/>
<path d="M33.611 16.3434C33.8112 15.8191 34.5812 13.7897 34.5812 13.7897C34.5711 13.8092 34.7809 13.2557 34.901 12.9159L35.0708 13.7023C35.0708 13.7023 35.531 15.8871 35.631 16.3434C35.2512 16.3434 34.091 16.3434 33.611 16.3434ZM36.6108 10.4497H34.731C34.1514 10.4497 33.711 10.6146 33.4608 11.207L29.8511 19.5766H32.401C32.401 19.5766 32.8208 18.4502 32.9111 18.2076C33.1908 18.2076 35.6713 18.2076 36.0312 18.2076C36.101 18.528 36.3212 19.5766 36.3212 19.5766H38.5713L36.6108 10.4497Z" fill="#00579F"/>
<path d="M17.1114 10.4497L14.7314 16.6735L14.4714 15.4113C14.0314 13.9548 12.6514 12.3723 11.1115 11.5855L13.2914 19.5671H15.8613L19.6812 10.4497H17.1114Z" fill="#00579F"/>
<path d="M12.5214 10.4497H8.61141L8.57141 10.6341C11.6214 11.3915 13.6414 13.2172 14.4713 15.4117L13.6213 11.2169C13.4814 10.634 13.0514 10.4689 12.5214 10.4497Z" fill="#FAA61A"/>
</g>
<defs>
<clipPath id="clip0_2536_5">
<rect width="30" height="9.42857" fill="white" transform="translate(8.57141 10.2856)"/>
</clipPath>
</defs>
</svg>
