<?xml version="1.0" encoding="utf-8"?>
<svg version="1.1"  xmlns="http://www.w3.org/2000/svg" xmlns:xlink="http://www.w3.org/1999/xlink" x="0px" y="0px"
	 viewBox="0 0 22 22" style="enable-background:new 0 0 22 22;" xml:space="preserve">
<path d="M2.5,21L4.4,5.4H8V4.1C8,2.4,9.3,1,11,1c1.7,0,3,1.4,3,3.1v1.3l3.6,0L19.5,21c0,0-0.4,0-0.6,0H3.1C2.9,21,2.5,21,2.5,21z
	 M12.9,4.1C12.9,3,12,2.2,11,2.2c-1,0-1.9,0.9-1.9,1.9v1.3h3.7V4.1z M18.3,19.8L16.6,6.6H14v1.3c0,0.3-0.3,0.6-0.6,0.6
	c-0.3,0-0.6-0.3-0.6-0.6V6.6H9.1v1.3c0,0.3-0.3,0.6-0.6,0.6C8.2,8.4,8,8.2,8,7.9V6.6H5.4L3.7,19.8H18.3z"/>
</svg>
