<svg  viewBox="0 0 15 15" fill="none" xmlns="http://www.w3.org/2000/svg">
<path d="M12.8033 2.19668C11.3867 0.780147 9.50332 0 7.5 0C5.49668 0 3.61327 0.780147 2.19668 2.19668C0.780147 3.61327 0 5.49668 0 7.5C0 9.50332 0.780147 11.3867 2.19668 12.8033C3.61327 14.2199 5.49668 15 7.5 15C9.50332 15 11.3867 14.2199 12.8033 12.8033C14.2199 11.3867 15 9.50332 15 7.5C15 5.49668 14.2199 3.61327 12.8033 2.19668ZM7.5 13.8281C4.01065 13.8281 1.17188 10.9893 1.17188 7.5C1.17188 4.01065 4.01065 1.17188 7.5 1.17188C10.9893 1.17188 13.8281 4.01065 13.8281 7.5C13.8281 10.9893 10.9893 13.8281 7.5 13.8281Z" fill="#333333"/>
<path d="M8.05263 7V3H7V8H11V7H8.05263Z" fill="#333333" stroke="#333333" stroke-width="0.2"/>
</svg>
