<?xml version="1.0" encoding="utf-8"?>

<svg version="1.1"  xmlns="http://www.w3.org/2000/svg" xmlns:xlink="http://www.w3.org/1999/xlink" x="0px" y="0px"
	 viewBox="0 0 19 19" style="enable-background:new 0 0 19 19;" xml:space="preserve">
<path d="M9.5,2c2.2,0,2.4,0,3.3,0c0.9,0,1.4,0.2,1.9,0.4c0.5,0.2,1,0.5,1.4,0.8c0.4,0.4,0.7,0.8,0.9,1.3c0.2,0.5,0.3,1,0.4,1.8
	c0,0.8,0,1.1,0,3.1s0,2.3,0,3.1c0,0.6-0.1,1.2-0.4,1.8c-0.2,0.5-0.5,1-0.9,1.3c-0.4,0.4-0.9,0.7-1.4,0.9c-0.6,0.2-1.3,0.3-1.9,0.3
	c-0.9,0-1.1,0-3.3,0s-2.4,0-3.3,0c-0.7,0-1.3-0.1-1.9-0.3c-0.5-0.2-1-0.5-1.4-0.9c-0.4-0.4-0.7-0.8-0.9-1.3c-0.2-0.5-0.3-1-0.4-1.8
	c0-1-0.1-2.1,0-3.1c0-2,0-2.3,0-3.1c0-0.8,0.2-1.3,0.4-1.8c0.2-0.5,0.5-1,0.9-1.3c0.4-0.4,0.9-0.7,1.4-0.8C4.9,2.2,5.5,2.1,6.2,2
	C7.3,2,8.4,2,9.5,2L9.5,2z M8.8,3.4c-1.5,0-1.8,0-2.5,0c-0.8,0-1.2,0.2-1.5,0.3C4.4,3.8,4.1,3.9,3.9,4.2C3.6,4.5,3.4,4.7,3.3,5.1
	C3.2,5.3,3,5.7,3,6.5c0,0.8,0,1,0,3c0,2,0,2.2,0,3c0,0.7,0.2,1.1,0.3,1.4c0.1,0.3,0.3,0.6,0.6,0.9s0.5,0.4,0.9,0.6
	c0.3,0.1,0.7,0.2,1.5,0.3c0.8,0,1.1,0,3.2,0s2.4,0,3.2,0c0.8,0,1.2-0.2,1.5-0.3c0.4-0.1,0.6-0.3,0.9-0.6c0.3-0.3,0.5-0.5,0.6-0.9
	c0.1-0.3,0.2-0.7,0.3-1.4c0-0.8,0-1,0-3s0-2.2,0-3c0-0.5-0.1-0.9-0.3-1.4c-0.1-0.3-0.3-0.6-0.6-0.9c-0.3-0.3-0.6-0.4-0.9-0.6
	c-0.5-0.2-1-0.3-1.5-0.3c-1.1,0-2.2-0.1-3.2,0H8.8z M13.8,4.6c0.5,0,1,0.4,1,0.9s-0.4,0.9-1,0.9c-0.5,0-1-0.4-1-0.9
	C12.8,5,13.3,4.6,13.8,4.6z M9.5,5.7c1.1,0,2.1,0.4,2.9,1.1s1.2,1.7,1.2,2.8c0,2.1-1.8,3.9-4.1,3.9c-0.5,0-1.1-0.1-1.5-0.3
	c-0.5-0.2-0.9-0.5-1.3-0.8C6.3,11.9,6,11.5,5.7,11c-0.2-0.5-0.3-1-0.3-1.5C5.4,7.4,7.2,5.7,9.5,5.7z M6.8,9.5C6.8,10.9,8,12,9.5,12
	c0.3,0,0.7,0,1-0.2c0.3-0.1,0.6-0.3,0.9-0.5c0.2-0.2,0.4-0.5,0.6-0.8c0.1-0.3,0.2-0.6,0.2-1C12.2,8.1,11,7,9.5,7c-0.3,0-0.7,0-1,0.2
	C8.2,7.3,7.9,7.5,7.6,7.7C7.4,7.9,7.2,8.2,7.1,8.5C6.9,8.8,6.8,9.2,6.8,9.5z"/>
</svg>
