<?xml version="1.0" encoding="utf-8"?>

<svg version="1.1" xmlns="http://www.w3.org/2000/svg" xmlns:xlink="http://www.w3.org/1999/xlink" x="0px" y="0px"
	 viewBox="0 0 30 30" style="enable-background:new 0 0 30 30;" xml:space="preserve">
<path d="M22,11c0-1.6-1.4-3-3-3c-1.7,0-3,1.4-3,3c0,1.7,1.4,3.1,3.1,3c-1,2.8-3.2,5-6,6c0-1.7-1.3-3.1-3-3.1c-1.7,0-3,1.4-3,3
	c0,1.7,1.4,3,3,3C16.9,23,22.2,17.1,22,11z"/>
<path d="M25.6,4.4c-5.9-5.9-15.3-5.9-21.2,0c-5.9,5.9-5.9,15.3,0,21.2c5.9,5.9,15.3,5.9,21.2,0C31.5,19.7,31.5,10.3,25.6,4.4z
	 M15,27.5C8.1,27.5,2.5,21.9,2.5,15C2.5,8.1,8.1,2.5,15,2.5c6.9,0,12.5,5.6,12.5,12.5C27.5,21.9,21.9,27.5,15,27.5z"/>
</svg>
