<?xml version="1.0" encoding="utf-8"?>
<svg version="1.1"  xmlns="http://www.w3.org/2000/svg" xmlns:xlink="http://www.w3.org/1999/xlink" x="0px" y="0px"
	 viewBox="0 0 16 16" style="enable-background:new 0 0 16 16;" xml:space="preserve">
<path d="M12.1,9.6c-0.9,0-1.7,0.4-2.2,1L6.8,8.9C6.9,8.6,6.9,8.3,6.9,8c0-0.3,0-0.6-0.1-0.9l3.1-1.8c0.6,0.6,1.4,1,2.2,1
	c1.7,0,3.1-1.4,3.1-3s-1.4-3-3.1-3s-3.1,1.4-3.1,3c0,0.3,0,0.6,0.1,0.9L6.1,5.9C5.5,5.3,4.7,5,3.9,5C2.2,5,0.8,6.3,0.8,8
	c0,1.7,1.4,3,3.1,3c0.9,0,1.7-0.4,2.2-1l3.1,1.8c-0.1,0.3-0.1,0.6-0.1,0.9c0,1.7,1.4,3,3.1,3s3.1-1.4,3.1-3S13.8,9.6,12.1,9.6z
	 M13.8,12.7c0,0.9-0.7,1.6-1.7,1.6c-0.9,0-1.7-0.7-1.7-1.6s0.7-1.6,1.7-1.6C13.1,11,13.8,11.8,13.8,12.7z M10.5,3.3
	c0-0.9,0.7-1.6,1.7-1.6c0.9,0,1.7,0.7,1.7,1.6c0,0.9-0.7,1.6-1.7,1.6C11.2,5,10.5,4.2,10.5,3.3z M5.5,8c0,0.9-0.7,1.6-1.7,1.6
	S2.2,8.9,2.2,8c0-0.9,0.7-1.6,1.7-1.6S5.5,7.1,5.5,8z"/>
</svg>
