<?xml version="1.0" encoding="utf-8"?>

<svg version="1.1" xmlns="http://www.w3.org/2000/svg" xmlns:xlink="http://www.w3.org/1999/xlink" x="0px" y="0px"
	 viewBox="0 0 19 19" style="enable-background:new 0 0 19 19;" xml:space="preserve">
<path d="M18.4,13.9l-0.1-0.1c-0.3-0.6-0.9-1.3-1.8-2.2l0,0l0,0h0c-0.4-0.4-0.6-0.7-0.8-0.8c-0.2-0.3-0.2-0.5-0.1-0.8
	c0.1-0.2,0.4-0.6,0.8-1.3l0.6-0.9c1.1-1.5,1.5-2.5,1.4-2.9l-0.1-0.1c0-0.1-0.1-0.1-0.3-0.2c-0.2-0.1-0.4-0.1-0.6,0l-2.7,0
	c-0.1,0-0.1,0-0.2,0l-0.1,0l0,0l0,0c0,0-0.1,0.1-0.1,0.1c0,0.1-0.1,0.1-0.1,0.2c-0.4,1.2-1,2.3-1.6,3.3c-0.2,0.4-0.5,0.7-0.8,1
	c-0.1,0.1-0.2,0.1-0.2,0.1l-0.2,0c-0.1-0.1-0.2-0.1-0.2-0.2C11.1,9,11,8.8,11,8.7c0-0.3-0.1-0.6,0-0.9l0-0.4l0-0.8l0-0.7l0-0.5
	c0-0.2,0-0.3,0-0.5c0-0.1-0.1-0.2-0.1-0.3c0-0.1-0.1-0.2-0.2-0.2c-0.1-0.1-0.2-0.1-0.3-0.1C10.1,4.1,9.7,4,9.2,4
	C8,4,7.3,4.1,6.9,4.2C6.8,4.3,6.7,4.4,6.6,4.5c-0.1,0.1-0.1,0.2,0,0.2C6.9,4.9,7.2,5,7.3,5.2l0.1,0.1c0,0.1,0.1,0.2,0.1,0.5
	C7.7,6.9,7.6,8,7.4,9.1c0,0.1-0.1,0.2-0.1,0.2c0,0,0,0,0,0.1c-0.1,0-0.2,0-0.3,0c-0.1,0-0.2-0.1-0.3-0.1C6.5,9.1,6.4,9,6.3,8.9
	C6.1,8.6,5.9,8.4,5.8,8.2c-0.2-0.3-0.3-0.6-0.5-1L5.1,6.8C4.8,6.2,4.6,5.6,4.3,5c0-0.1-0.1-0.2-0.2-0.3l0,0C3.9,4.6,3.8,4.5,3.7,4.5
	l-2.6,0c-0.3,0-0.4,0.1-0.5,0.2l0,0.1c0,0,0,0.1,0,0.2c0,0.1,0,0.2,0.1,0.3C1.2,6.9,2,8.5,2.9,10c0.6,1,1.2,1.9,1.9,2.7L5.1,13
	c0.1,0.2,0.4,0.4,0.7,0.6c0.3,0.2,0.6,0.4,1,0.7c0.8,0.5,1.7,0.7,2.6,0.7h1.1c0.2,0,0.4-0.1,0.5-0.2l0-0.1c0.1-0.1,0.1-0.3,0.1-0.5
	c0-0.3,0-0.5,0.1-0.8c0-0.2,0.1-0.4,0.2-0.5c0.1-0.2,0.2-0.3,0.4-0.4c0,0,0.1,0,0.1,0c0.1-0.1,0.3,0,0.5,0.2
	c0.2,0.2,0.4,0.3,0.6,0.6c0.2,0.2,0.4,0.5,0.6,0.8c0.3,0.3,0.5,0.5,0.7,0.6l0.2,0.1c0.1,0.1,0.3,0.2,0.5,0.2c0.2,0.1,0.4,0.1,0.5,0
	l2.4,0c0.2,0,0.4,0,0.5-0.1c0.1-0.1,0.2-0.2,0.2-0.3c0-0.1,0-0.2,0-0.3C18.5,14.1,18.4,14,18.4,13.9z"/>
</svg>
