<?xml version="1.0" encoding="utf-8"?>

<svg version="1.1" xmlns="http://www.w3.org/2000/svg" xmlns:xlink="http://www.w3.org/1999/xlink" x="0px" y="0px"
	 viewBox="0 0 19 19" style="enable-background:new 0 0 19 19;" xml:space="preserve">
<path d="M19,9.5c0,1.2,0,2.5-0.3,3.7c-0.1,0.4-0.4,0.8-0.8,1.1c-0.4,0.3-0.8,0.4-1.3,0.5C14.3,15,11.9,15,9.5,15
	c-2.4,0-4.7,0-7.1-0.2c-0.5,0-0.9-0.2-1.3-0.5c-0.4-0.3-0.6-0.6-0.8-1.1C0,12,0,10.7,0,9.5C0,8.3,0,7,0.3,5.8C0.5,5.4,0.7,5,1.1,4.7
	c0.4-0.3,0.8-0.4,1.3-0.5C4.7,4,7.1,4,9.5,4c2.4,0,4.7,0,7.1,0.2c1,0.1,1.8,0.7,2.1,1.5C19,7,19,8.3,19,9.5L19,9.5z M13.1,9.4L7,6.7
	v5.2L13.1,9.4L13.1,9.4z"/>
</svg>
